<?xml version="1.0" encoding="UTF-8"?>
<!-- Generator: https://ezgif.com/png-to-svg -->
<svg version="1.1" xmlns="http://www.w3.org/2000/svg" width="77" height="93">
<path d="M0 0 C8.91 0 17.82 0 27 0 C27.66 2.97 28.32 5.94 29 9 C30 8.99 31 8.98 32.03 8.96 C33.32 8.96 34.61 8.95 35.94 8.94 C37.23 8.93 38.51 8.91 39.84 8.9 C43 9 43 9 44 10 C44.1 11.66 44.13 13.33 44.12 15 C44.13 16.36 44.13 16.36 44.13 17.75 C44 20 44 20 43 21 C41.33 21.04 39.67 21.04 38 21 C38.01 21.93 38.02 22.86 38.03 23.83 C38.08 33.81 37.86 43.76 37.37 53.74 C37.29 55.39 37.22 57.04 37.16 58.69 C37.06 61.12 36.95 63.55 36.83 65.98 C36.79 67.08 36.79 67.08 36.76 68.2 C36.56 71.57 36.02 73.96 34.46 76.96 C31.07 79.77 28.09 79.72 23.88 79.66 C22.7 79.67 22.7 79.67 21.5 79.68 C19.85 79.68 18.19 79.67 16.54 79.65 C14.01 79.63 11.48 79.65 8.95 79.68 C7.34 79.68 5.73 79.67 4.12 79.66 C2.99 79.68 2.99 79.68 1.84 79.69 C-1.71 79.62 -3.65 79.28 -6.44 77.02 C-8.53 72.97 -8.8 69.47 -9.05 64.96 C-9.11 64.09 -9.17 63.22 -9.23 62.31 C-9.42 59.52 -9.59 56.73 -9.75 53.94 C-9.87 52.09 -10 50.24 -10.13 48.38 C-10.74 39.25 -11.21 30.16 -11 21 C-11.8 21.02 -12.61 21.04 -13.44 21.06 C-16 21 -16 21 -17 20 C-17.1 18.34 -17.13 16.67 -17.12 15 C-17.13 14.09 -17.13 13.19 -17.13 12.25 C-17 10 -17 10 -16 9 C-13.65 8.93 -11.29 8.92 -8.94 8.94 C-7.65 8.95 -6.36 8.96 -5.03 8.96 C-4.03 8.98 -3.03 8.99 -2 9 C-1.34 6.03 -0.68 3.06 0 0 Z M4 5 C4 6.32 4 7.64 4 9 C10.27 9 16.54 9 23 9 C23 7.68 23 6.36 23 5 C16.73 5 10.46 5 4 5 Z " fill="#E8E7E7" transform="translate(23,10)"/>
<path d="M0 0 C8.91 0 17.82 0 27 0 C27.66 2.97 28.32 5.94 29 9 C30 8.99 31 8.98 32.03 8.96 C33.32 8.96 34.61 8.95 35.94 8.94 C37.23 8.93 38.51 8.91 39.84 8.9 C43 9 43 9 44 10 C44.1 11.66 44.13 13.33 44.12 15 C44.13 16.36 44.13 16.36 44.13 17.75 C44 20 44 20 43 21 C41.33 21.04 39.67 21.04 38 21 C38.01 21.93 38.02 22.86 38.03 23.83 C38.08 33.81 37.86 43.76 37.37 53.74 C37.29 55.39 37.22 57.04 37.16 58.69 C37.06 61.12 36.95 63.55 36.83 65.98 C36.79 67.08 36.79 67.08 36.76 68.2 C36.56 71.57 36.02 73.96 34.46 76.96 C31.07 79.77 28.09 79.72 23.88 79.66 C22.7 79.67 22.7 79.67 21.5 79.68 C19.85 79.68 18.19 79.67 16.54 79.65 C14.01 79.63 11.48 79.65 8.95 79.68 C7.34 79.68 5.73 79.67 4.12 79.66 C2.99 79.68 2.99 79.68 1.84 79.69 C-1.71 79.62 -3.65 79.28 -6.44 77.02 C-8.53 72.97 -8.8 69.47 -9.05 64.96 C-9.11 64.09 -9.17 63.22 -9.23 62.31 C-9.42 59.52 -9.59 56.73 -9.75 53.94 C-9.87 52.09 -10 50.24 -10.13 48.38 C-10.74 39.25 -11.21 30.16 -11 21 C-11.8 21.02 -12.61 21.04 -13.44 21.06 C-16 21 -16 21 -17 20 C-17.1 18.34 -17.13 16.67 -17.12 15 C-17.13 14.09 -17.13 13.19 -17.13 12.25 C-17 10 -17 10 -16 9 C-13.65 8.93 -11.29 8.92 -8.94 8.94 C-7.65 8.95 -6.36 8.96 -5.03 8.96 C-4.03 8.98 -3.03 8.99 -2 9 C-1.34 6.03 -0.68 3.06 0 0 Z M4 5 C4 6.32 4 7.64 4 9 C10.27 9 16.54 9 23 9 C23 7.68 23 6.36 23 5 C16.73 5 10.46 5 4 5 Z M-8 21 C-7.64 28.03 -7.27 35.06 -6.88 42.09 C-6.75 44.48 -6.63 46.87 -6.51 49.26 C-6.33 52.7 -6.14 56.14 -5.95 59.57 C-5.9 60.64 -5.85 61.71 -5.8 62.81 C-5.59 70.05 -5.59 70.05 -2 76 C1.23 76.72 1.23 76.72 4.97 76.56 C5.65 76.56 6.32 76.55 7.02 76.55 C8.45 76.54 9.88 76.52 11.31 76.49 C13.49 76.44 15.68 76.43 17.86 76.42 C25.31 76.66 25.31 76.66 32 74 C33.38 69.87 33.38 65.89 33.56 61.56 C33.63 60.14 33.63 60.14 33.69 58.69 C34.19 46.13 34.06 33.57 34 21 C20.14 21 6.28 21 -8 21 Z " fill="#2B2024" transform="translate(23,10)"/>
<path d="M0 0 C18.15 0 36.3 0 55 0 C55 1.98 55 3.96 55 6 C36.85 6 18.7 6 0 6 C0 4.02 0 2.04 0 0 Z " fill="#B08856" transform="translate(9,22)"/>
<path d="M0 0 C0.99 0 1.98 0 3 0 C3 10.56 3 21.12 3 32 C2.01 32 1.02 32 0 32 C0 21.44 0 10.88 0 0 Z " fill="#2E2327" transform="translate(47,41)"/>
<path d="M0 0 C0.99 0 1.98 0 3 0 C3 10.56 3 21.12 3 32 C2.01 32 1.02 32 0 32 C0 21.44 0 10.88 0 0 Z " fill="#2A1F23" transform="translate(39,41)"/>
<path d="M0 0 C0.99 0 1.98 0 3 0 C3 10.56 3 21.12 3 32 C2.01 32 1.02 32 0 32 C0 21.44 0 10.88 0 0 Z " fill="#2A1F23" transform="translate(31,41)"/>
<path d="M0 0 C0.99 0 1.98 0 3 0 C3 10.56 3 21.12 3 32 C2.01 32 1.02 32 0 32 C0 21.44 0 10.88 0 0 Z " fill="#2E2327" transform="translate(23,41)"/>
</svg>
