<?xml version="1.0" standalone="no"?>
<!DOCTYPE svg PUBLIC "-//W3C//DTD SVG 20010904//EN"
 "http://www.w3.org/TR/2001/REC-SVG-20010904/DTD/svg10.dtd">
<svg version="1.0" xmlns="http://www.w3.org/2000/svg"
 width="128.000000pt" height="128.000000pt" viewBox="0 0 128.000000 128.000000"
 preserveAspectRatio="xMidYMid meet">

<g transform="translate(0.000000,128.000000) scale(0.100000,-0.100000)"
fill="#000000" stroke="none">
<path d="M512 1028 c-5 -7 -13 -28 -17 -45 l-7 -33 -67 0 c-77 0 -91 -9 -91
-60 0 -39 14 -60 42 -60 22 0 25 -16 39 -270 6 -113 15 -222 20 -242 16 -63
33 -68 211 -68 150 0 158 1 184 23 l27 24 13 264 c6 145 12 265 13 267 1 1 9
2 19 2 28 0 42 20 42 60 0 51 -14 60 -91 60 l-67 0 -7 33 c-12 55 -18 57 -140
57 -78 0 -116 -4 -123 -12z m222 -44 c12 -31 4 -34 -99 -34 -103 0 -111 3 -99
34 9 24 189 24 198 0z m174 -91 l3 -23 -275 0 c-261 0 -276 1 -276 18 0 10 3
22 7 25 4 4 126 6 272 5 l266 -3 3 -22z m-62 -90 c-3 -16 -8 -127 -12 -248 -6
-208 -12 -250 -38 -267 -21 -14 -300 -9 -320 5 -16 12 -20 42 -32 213 -7 109
-15 227 -17 262 l-4 62 214 0 215 0 -6 -27z"/>
<path d="M500 569 c0 -124 3 -160 13 -157 9 4 13 47 15 161 2 135 0 157 -13
157 -13 0 -15 -23 -15 -161z"/>
<path d="M580 569 c0 -124 3 -160 13 -157 9 4 13 47 15 161 2 135 0 157 -13
157 -13 0 -15 -23 -15 -161z"/>
<path d="M662 573 c2 -114 6 -157 16 -161 9 -3 12 33 12 157 0 138 -2 161 -15
161 -13 0 -15 -22 -13 -157z"/>
<path d="M742 573 c2 -114 6 -157 16 -161 9 -3 12 33 12 157 0 138 -2 161 -15
161 -13 0 -15 -22 -13 -157z"/>
</g>
</svg>
