<?xml version="1.0" encoding="UTF-8" standalone="no"?>
<!-- Created with Inkscape (http://www.inkscape.org/) -->

<svg
   width="64pt"
   height="64pt"
   viewBox="0 0 22.577778 22.577778"
   version="1.1"
   id="svg831"
   inkscape:version="1.1.1 (3bf5ae0d25, 2021-09-20)"
   sodipodi:docname="Export - Unblash - 64px.svg"
   inkscape:export-filename="C:\Users\User\Desktop\CARLOS PROJECT\3. MARET 1\EXPORT\EXPAND\15 - Garbage.png"
   inkscape:export-xdpi="576"
   inkscape:export-ydpi="576"
   xmlns:inkscape="http://www.inkscape.org/namespaces/inkscape"
   xmlns:sodipodi="http://sodipodi.sourceforge.net/DTD/sodipodi-0.dtd"
   xmlns="http://www.w3.org/2000/svg"
   xmlns:svg="http://www.w3.org/2000/svg"
   xmlns:rdf="http://www.w3.org/1999/02/22-rdf-syntax-ns#"
   xmlns:cc="http://creativecommons.org/ns#"
   xmlns:dc="http://purl.org/dc/elements/1.1/">
  <defs
     id="defs825">
    <pattern
       id="EMFhbasepattern"
       patternUnits="userSpaceOnUse"
       width="6"
       height="6"
       x="0"
       y="0" />
    <pattern
       id="EMFhbasepattern-9"
       patternUnits="userSpaceOnUse"
       width="6"
       height="6"
       x="0"
       y="0" />
    <pattern
       id="EMFhbasepattern-0"
       patternUnits="userSpaceOnUse"
       width="6"
       height="6"
       x="0"
       y="0" />
    <pattern
       id="EMFhbasepattern-7"
       patternUnits="userSpaceOnUse"
       width="6"
       height="6"
       x="0"
       y="0" />
    <pattern
       id="EMFhbasepattern-2"
       patternUnits="userSpaceOnUse"
       width="6"
       height="6"
       x="0"
       y="0" />
    <pattern
       id="EMFhbasepattern-98"
       patternUnits="userSpaceOnUse"
       width="6"
       height="6"
       x="0"
       y="0" />
    <pattern
       id="EMFhbasepattern-6"
       patternUnits="userSpaceOnUse"
       width="6"
       height="6"
       x="0"
       y="0" />
    <pattern
       id="EMFhbasepattern-01"
       patternUnits="userSpaceOnUse"
       width="6"
       height="6"
       x="0"
       y="0" />
    <pattern
       id="EMFhbasepattern-07"
       patternUnits="userSpaceOnUse"
       width="6"
       height="6"
       x="0"
       y="0" />
    <pattern
       id="EMFhbasepattern-8"
       patternUnits="userSpaceOnUse"
       width="6"
       height="6"
       x="0"
       y="0" />
    <pattern
       id="EMFhbasepattern-4"
       patternUnits="userSpaceOnUse"
       width="6"
       height="6"
       x="0"
       y="0" />
    <pattern
       id="EMFhbasepattern-40"
       patternUnits="userSpaceOnUse"
       width="6"
       height="6"
       x="0"
       y="0" />
    <pattern
       id="EMFhbasepattern-08"
       patternUnits="userSpaceOnUse"
       width="6"
       height="6"
       x="0"
       y="0" />
    <pattern
       id="EMFhbasepattern-04"
       patternUnits="userSpaceOnUse"
       width="6"
       height="6"
       x="0"
       y="0" />
    <pattern
       id="EMFhbasepattern-014"
       patternUnits="userSpaceOnUse"
       width="6"
       height="6"
       x="0"
       y="0" />
    <pattern
       id="EMFhbasepattern-27"
       patternUnits="userSpaceOnUse"
       width="6"
       height="6"
       x="0"
       y="0" />
    <pattern
       id="EMFhbasepattern-09"
       patternUnits="userSpaceOnUse"
       width="6"
       height="6"
       x="0"
       y="0" />
    <pattern
       id="EMFhbasepattern-5"
       patternUnits="userSpaceOnUse"
       width="6"
       height="6"
       x="0"
       y="0" />
    <pattern
       id="EMFhbasepattern-018"
       patternUnits="userSpaceOnUse"
       width="6"
       height="6"
       x="0"
       y="0" />
  </defs>
  <sodipodi:namedview
     id="base"
     pagecolor="#ffffff"
     bordercolor="#666666"
     borderopacity="1.0"
     inkscape:pageopacity="0.0"
     inkscape:pageshadow="2"
     inkscape:zoom="9.1757813"
     inkscape:cx="39.560664"
     inkscape:cy="42.666667"
     inkscape:document-units="pt"
     inkscape:current-layer="layer1"
     showgrid="false"
     units="pt"
     inkscape:window-width="1920"
     inkscape:window-height="1001"
     inkscape:window-x="-9"
     inkscape:window-y="41"
     inkscape:window-maximized="1"
     inkscape:pagecheckerboard="true"
     inkscape:showpageshadow="false"
     inkscape:object-paths="true"
     inkscape:snap-intersection-paths="true"
     inkscape:snap-smooth-nodes="true"
     inkscape:snap-midpoints="true"
     showguides="true"
     inkscape:snap-bbox="true"
     inkscape:bbox-nodes="true"
     inkscape:snap-nodes="false"
     inkscape:snap-global="true">
    <inkscape:grid
       type="xygrid"
       id="grid1378" />
    <sodipodi:guide
       position="0.97013831,21.607643"
       orientation="78.000048,0"
       id="guide1380"
       inkscape:locked="false" />
    <sodipodi:guide
       position="0.97013831,0.97013129"
       orientation="0,78.000005"
       id="guide1382"
       inkscape:locked="false" />
    <sodipodi:guide
       position="21.607639,0.97013129"
       orientation="-78.000048,0"
       id="guide1384"
       inkscape:locked="false" />
    <sodipodi:guide
       position="21.607639,21.607643"
       orientation="0,-78.000005"
       id="guide1386"
       inkscape:locked="false" />
  </sodipodi:namedview>
  <metadata
     id="metadata828">
    <rdf:RDF>
      <cc:Work
         rdf:about="">
        <dc:format>image/svg+xml</dc:format>
        <dc:type
           rdf:resource="http://purl.org/dc/dcmitype/StillImage" />
      </cc:Work>
    </rdf:RDF>
  </metadata>
  <g
     inkscape:label="Icon"
     inkscape:groupmode="layer"
     id="layer1"
     transform="translate(0,-274.42223)">
    <path
       id="rect9208"
       style="color:#000000;display:inline;fill:#000000;stroke-width:1;stroke-linecap:round;stroke-linejoin:round;-inkscape-stroke:none"
       d="m 10.118525,275.39236 c -0.9424217,0 -1.4245891,0.71854 -1.4245891,1.50586 H 2.9923187 c -0.3880786,0 -0.7100191,0.32252 -0.7100191,0.71068 v 0.3784 c 0,0.59632 0.489484,1.08585 1.085837,1.08585 H 19.208989 c 0.596353,0 1.086489,-0.48953 1.086489,-1.08585 v -0.3784 c 0,-0.38816 -0.322589,-0.71068 -0.710671,-0.71068 h -5.700965 c 0,-0.74497 -0.476118,-1.50586 -1.464903,-1.50586 z m 0.03707,0.66581 h 2.263352 c 0.54441,0 0.799097,0.42782 0.799097,0.84005 H 9.3597475 c 0,-0.47314 0.381047,-0.84005 0.7958445,-0.84005 z m 9.474086,1.55073 v 0.3784 c 0,0.23625 -0.183926,0.42003 -0.420684,0.42003 H 3.3681366 c -0.2367573,0 -0.4200309,-0.18377 -0.4200309,-0.42003 v -0.3784 z m -15.1705006,2.30242 c -0.1962428,-8e-5 -0.3499805,0.16874 -0.3316017,0.36411 l 1.2705556,14.51581 c 0.068309,0.69978 0.6608958,1.23863 1.3641191,1.23863 h 9.0508036 c 0.703028,0 1.304434,-0.53611 1.366074,-1.24058 l 1.270491,-14.5164 c 0.01838,-0.19537 -0.135359,-0.36419 -0.331601,-0.36411 z m 13.2953166,0.6638 -1.238632,14.15488 c -0.03156,0.36049 -0.336135,0.63394 -0.702869,0.63394 H 6.7621914 c -0.366536,0 -0.6673076,-0.2723 -0.7028686,-0.63655 L 4.8232902,280.57707 Z m -11.3681168,0.8472 c -0.1841123,-6.6e-4 -0.3338451,0.14815 -0.3342049,0.33226 -6.656e-4,0.18487 0.1493301,0.33492 0.3342049,0.3342 h 9.8050348 c 0.183858,-6.7e-4 0.332324,-0.15035 0.331604,-0.3342 -3.33e-4,-0.18311 -0.148509,-0.33154 -0.331604,-0.33226 z m 0.3465555,12.0418 c 0.047586,0.59438 0.5512598,1.05917 1.1476065,1.05917 h 0.3758142 c 0.3880678,0 0.7100152,-0.32186 0.7100227,-0.71002 v -10.17369 c -7.5e-6,-0.38818 -0.3219247,-0.71068 -0.7100227,-0.71068 l -1.509116,-6e-5 c -0.3916978,0 -0.7081656,0.34239 -0.678161,0.73278 z M 10.91048,282.92884 c -0.596363,0 -1.0864868,0.49016 -1.0864868,1.08649 v 9.41946 c 0,0.59632 0.4901308,1.08843 1.0864868,1.08843 h 0.77894 c 0.596356,0 1.085836,-0.49211 1.085836,-1.08843 v -9.41946 c 0,-0.59633 -0.489474,-1.08649 -1.085836,-1.08649 z m 3.408354,0 c -0.388094,0 -0.708064,0.3225 -0.708067,0.71067 v 10.1737 c 3e-6,0.38816 0.319999,0.71001 0.708067,0.71001 h 0.378417 c 0.596343,0 1.097419,-0.46478 1.145005,-1.05918 v -6.5e-4 -6.7e-4 -6.6e-4 -6.7e-4 l 0.666458,-9.79788 c 0.03133,-0.39127 -0.288358,-0.73474 -0.680764,-0.73474 z m -6.0182614,0.71067 v 10.1737 c 0,0.0281 -0.015715,0.0442 -0.044214,0.0442 H 7.8805419 c -0.2555501,0 -0.4614471,-0.19052 -0.4818013,-0.44475 l -0.6658052,-9.77317 z m 2.6099074,-0.0442 h 0.77894 c 0.23676,0 0.420031,0.18376 0.420031,0.42003 v 9.41946 c 0,0.23626 -0.183263,0.42264 -0.420031,0.42264 h -0.77894 c -0.236768,0 -0.42068,-0.18638 -0.42068,-0.42264 v -9.41946 c 0,-0.23627 0.183919,-0.42003 0.42068,-0.42003 z m 4.931776,0.0442 -0.663203,9.77317 c -0.02037,0.25423 -0.226254,0.44475 -0.481802,0.44475 h -0.378417 c -0.0285,0 -0.04421,-0.0161 -0.04421,-0.0442 v -10.1737 z"
       sodipodi:nodetypes="ccsssssssscccccccccsssscccccsscccccssccccscccccscsccsssccsssssssssccssccccccsscssscccscsssssssccsssccc" />
  </g>
</svg>
