<?xml version="1.0" encoding="UTF-8"?>
<!-- Generator: https://ezgif.com/png-to-svg -->
<svg version="1.1" xmlns="http://www.w3.org/2000/svg" width="26" height="30">
<path d="M0 0 C2.12 0.88 2.12 0.88 3.12 1.88 C3.07 9.3 2.5 24.5 -2.88 29.88 C-5.25 29.56 -5.25 29.56 -7.88 28.88 C-8.62 28.73 -9.36 28.59 -10.12 28.44 C-10.7 28.25 -11.28 28.07 -11.88 27.88 C-13.23 25.17 -12.94 22.87 -12.88 19.88 C-13.97 20.08 -15.06 20.29 -16.19 20.5 C-19.88 20.88 -19.88 20.88 -22.88 18.88 C-22.63 15.27 -22.1 14.09 -19.4 11.59 C-18.36 10.86 -17.32 10.13 -16.25 9.38 C-15.71 8.99 -15.16 8.6 -14.6 8.2 C-13.03 7.09 -11.45 5.98 -9.88 4.88 C-8.56 3.83 -7.25 2.79 -5.94 1.75 C-2.88 -0.12 -2.88 -0.12 0 0 Z " fill="#132F45" transform="translate(22.875,0.125)"/>
<path d="M0 0 C0.33 0.33 0.66 0.66 1 1 C0.91 2.86 0.75 4.71 0.56 6.56 C0.46 7.57 0.36 8.59 0.25 9.63 C0.17 10.41 0.09 11.19 0 12 C-0.99 11.67 -1.98 11.34 -3 11 C-3.33 8.69 -3.66 6.38 -4 4 C-9.28 7.63 -14.56 11.26 -20 15 C-19.01 15.66 -18.02 16.32 -17 17 C-17 17.99 -17 18.98 -17 20 C-19.31 19.67 -21.62 19.34 -24 19 C-24.33 17.35 -24.66 15.7 -25 14 C-19.97 9.88 -14.9 5.82 -9.69 1.94 C-8.91 1.35 -8.13 0.76 -7.32 0.15 C-4.42 -1.29 -3.03 -1 0 0 Z " fill="#132D43" transform="translate(25,1)"/>
<path d="M0 0 C0.9 3.6 1.06 4.89 0.44 8.33 C0.3 9.13 0.16 9.93 0.02 10.75 C-0.13 11.57 -0.28 12.4 -0.44 13.25 C-0.66 14.51 -0.66 14.51 -0.88 15.8 C-1.25 17.87 -1.62 19.93 -2 22 C-2.66 22 -3.32 22 -4 22 C-5.85 18.19 -6.22 16.06 -5 12 C-4.37 10.32 -3.71 8.65 -3 7 C-5.31 9.15 -7 10.99 -8.56 13.75 C-9.27 14.86 -9.27 14.86 -10 16 C-10.99 16 -11.98 16 -13 16 C-13.33 15.34 -13.66 14.68 -14 14 C-14.99 13.34 -15.98 12.68 -17 12 C-8.58 6.06 -8.58 6.06 0 0 Z " fill="#53BCDC" transform="translate(21,4)"/>
<path d="M0 0 C0.31 0.64 0.62 1.28 0.94 1.94 C1.83 3.94 1.83 3.94 3 5 C2.91 7.02 2.75 9.05 2.56 11.06 C2.46 12.17 2.36 13.27 2.25 14.41 C2.13 15.69 2.13 15.69 2 17 C1.67 17 1.34 17 1 17 C0.86 15.93 0.71 14.86 0.56 13.75 C0.13 10.25 0.13 10.25 -0.62 7.94 C-1.16 5.16 -0.56 2.75 0 0 Z " fill="#1F3E53" transform="translate(21,8)"/>
</svg>
